<?xml version="1.0" encoding="UTF-8"?>
<svg version="1.1" xmlns="http://www.w3.org/2000/svg" width="5692" height="1411">
<path d="M0 0 C47.98814242 -0.02329228 95.9762842 -0.04070739 143.96443123 -0.05106533 C149.73198411 -0.05231487 155.49953698 -0.0536093 161.26708984 -0.05493164 C162.41449272 -0.05519395 163.5618956 -0.05545626 164.74406826 -0.05572652 C182.91255464 -0.05998515 201.08103758 -0.06781326 219.24952197 -0.0771528 C238.13050296 -0.0867718 257.01148226 -0.0921124 275.89246559 -0.09408849 C286.39706357 -0.09529467 296.90165461 -0.09800787 307.40625 -0.10573006 C347.24211265 -0.13402474 387.07671181 -0.09317502 426.91168213 0.19631958 C427.57034728 0.20110219 428.22901243 0.20588481 428.90763714 0.21081235 C435.17461226 0.25636706 441.44158308 0.30250133 447.70855232 0.34885858 C525.14071774 0.92156921 602.57314509 1.21972224 680.00693166 1.4577103 C682.33020845 1.46485316 684.6534852 1.47200891 686.97676194 1.4791679 C726.23065253 1.60008655 765.48455624 1.71642251 804.73846602 1.830924 C830.9799476 1.90747483 857.22142459 1.9854488 883.46289825 2.06466675 C884.34552764 2.06733082 885.22815702 2.06999489 886.13753275 2.07273969 C895.10976082 2.09982262 904.08198881 2.12693135 913.05421675 2.15405702 C932.20513134 2.21195502 951.35604646 2.2696763 970.50696182 2.32731628 C971.87517783 2.33143459 971.87517783 2.33143459 973.27103457 2.3356361 C1016.38598579 2.46539929 1059.50094226 2.59338443 1102.6158997 2.72106405 C1107.36221324 2.7351197 1112.10852677 2.74917675 1116.85484031 2.76323354 C1117.79536881 2.766019 1118.73589732 2.76880446 1119.70492669 2.77167432 C1129.21417982 2.79983683 1138.72343294 2.82800061 1148.23268605 2.85616805 C1150.13594704 2.86180571 1152.03920802 2.86744324 1153.94246901 2.87308065 C1197.52066151 3.00216032 1241.09885185 3.13196161 1284.67704128 3.26207628 C1287.50007142 3.27050511 1290.32310156 3.27893323 1293.14613171 3.28736125 C1336.03533049 3.41540867 1378.92452829 3.54378076 1421.81372452 3.67268372 C1423.65693465 3.67822311 1425.50014479 3.68376249 1427.34335492 3.68930186 C1443.79971679 3.73875914 1460.25607863 3.78822671 1476.71244028 3.8377558 C1487.52680186 3.87030347 1498.34116349 3.90283302 1509.15552521 3.93533325 C1510.04102028 3.93799443 1510.92651535 3.94065561 1511.83884361 3.94339744 C1538.81445275 4.02445471 1565.7900645 4.10459639 1592.76567841 4.18405151 C1631.29794057 4.29756022 1669.83020034 4.41184338 1708.3624546 4.52800849 C1709.94089367 4.53276706 1711.51933274 4.53752445 1713.09777182 4.54228064 C1786.06630011 4.76216163 1859.03473471 4.99872958 1932.00305176 5.28076172 C1934.02866131 5.28858112 1936.05427086 5.29640035 1938.07988041 5.30421808 C1995.05330021 5.52465063 2052.02663958 5.76477718 2109 6 C2109 96.42 2109 186.84 2109 280 C1919.91 280 1730.82 280 1536 280 C1536 649.93 1536 1019.86 1536 1401 C1412.91 1401 1289.82 1401 1163 1401 C1163 1031.07 1163 661.14 1163 280 C1086.44 280 1009.88 280 931 280 C933.64 288.58 936.28 297.16 939 306 C960.29341417 390.75613874 959.20832743 483.72260671 894.22802734 665.04394531 C883.8391418 682.29199167 871.99171049 698.62324811 859 714 C858.58452408 714.49748749 858.16904816 714.99497498 857.74098206 715.50753784 C850.57581939 724.08533541 843.09531104 732.22392824 835.16333008 740.09741211 C833.42745269 741.82248477 831.7026491 743.55811991 829.97851562 745.29492188 C823.29142211 751.98991645 816.41730244 758.11465727 809 764 C807.89800947 764.93458811 806.80168788 765.8759654 805.71484375 766.828125 C775.82500222 792.89240313 739.40143887 814.46140714 703 830 C704.75559968 833.29805947 706.5134311 836.59491586 708.2734375 839.890625 C709.73189586 842.62177903 711.18821351 845.35403398 712.64160156 848.08789062 C719.74849637 861.45590101 726.93232802 874.7573903 734.4362793 887.90820312 C738.16751154 894.46734692 741.71814115 901.10117404 745.19262695 907.79907227 C748.48791803 914.11454965 751.9721373 920.311916 755.5 926.5 C759.88519637 934.19189897 764.11479593 941.93770494 768.19140625 949.796875 C771.48724418 956.11301458 774.97171974 962.31118359 778.5 968.5 C782.88519637 976.19189897 787.11479593 983.93770494 791.19140625 991.796875 C794.48724418 998.11301458 797.97171974 1004.31118359 801.5 1010.5 C805.88519637 1018.19189897 810.11479593 1025.93770494 814.19140625 1033.796875 C817.48724418 1040.11301458 820.97171974 1046.31118359 824.5 1052.5 C828.88519637 1060.19189897 833.11479593 1067.93770494 837.19140625 1075.796875 C840.48724418 1082.11301458 843.97171974 1088.31118359 847.5 1094.5 C851.88519637 1102.19189897 856.11479593 1109.93770494 860.19140625 1117.796875 C863.48724418 1124.11301458 866.97171974 1130.31118359 870.5 1136.5 C874.88519637 1144.19189897 879.11479593 1151.93770494 883.19140625 1159.796875 C886.48724418 1166.11301458 889.97171974 1172.31118359 893.5 1178.5 C897.88519637 1186.19189897 902.11479593 1193.93770494 906.19140625 1201.796875 C909.48724418 1208.11301458 912.97171974 1214.31118359 916.5 1220.5 C920.88519637 1228.19189897 925.11479593 1235.93770494 929.19140625 1243.796875 C932.48724418 1250.11301458 935.97171974 1256.31118359 939.5 1262.5 C943.88519637 1270.19189897 948.11479593 1277.93770494 952.19140625 1285.796875 C955.48724418 1292.11301458 958.97171974 1298.31118359 962.5 1304.5 C966.88519637 1312.19189897 971.11479593 1319.93770494 975.19140625 1327.796875 C978.48724782 1334.11302154 981.97188344 1340.31108488 985.5 1346.5 C989.89101344 1354.20642943 994.15261855 1361.95817212 998.23974609 1369.82983398 C1002.11443847 1377.27891028 1006.15957003 1384.63216887 1010.24243164 1391.96899414 C1010.73219482 1392.85707764 1011.22195801 1393.74516113 1011.7265625 1394.66015625 C1012.16564941 1395.45043213 1012.60473633 1396.24070801 1013.05712891 1397.05493164 C1014 1399 1014 1399 1014 1401 C890.91 1401 767.82 1401 641 1401 C631.77017405 1382.5403481 631.77017405 1382.5403481 627.79296875 1374.40234375 C627.34568924 1373.48832291 626.89840973 1372.57430206 626.43757629 1371.63258362 C625.01997046 1368.7346681 623.60359721 1365.83615299 622.1875 1362.9375 C621.45575562 1361.44041504 621.45575562 1361.44041504 620.70922852 1359.91308594 C614.60660758 1347.42558409 608.53111305 1334.92718864 602.5625 1322.375 C599.40436388 1315.73585123 596.20006694 1309.11900033 593 1302.5 C588.81504846 1293.84202282 584.64254503 1285.17837452 580.5 1276.5 C576.37730364 1267.86378696 572.22616292 1259.24152009 568.0625 1250.625 C561.19609177 1236.41474739 554.36423971 1222.18806621 547.54101562 1207.95703125 C541.71007124 1195.79690425 535.86626319 1183.6431247 530 1171.5 C523.15509712 1157.33109783 516.34409773 1143.14605658 509.54101562 1128.95703125 C503.3918447 1116.13325957 497.22537399 1103.31802621 491.03765869 1090.51281738 C486.73037649 1081.5979836 482.44650221 1072.67227306 478.18115234 1063.73730469 C474.49578375 1056.02311851 470.78216629 1048.32268829 467.0625 1040.625 C460.19609177 1026.41474739 453.36423971 1012.18806621 446.54101562 997.95703125 C440.71007124 985.79690425 434.86626319 973.6431247 429 961.5 C424.12518425 951.40916472 419.2573171 941.31505787 414.41821289 931.20703125 C411.85969327 925.86392426 409.286656 920.52850172 406.69140625 915.203125 C406.14693848 914.08131836 405.6024707 912.95951172 405.04150391 911.80371094 C404.00525591 909.66938705 402.96485384 907.53707277 401.91943359 905.40722656 C399.15117221 899.69216756 396.86323022 894.07275034 395 888 C394.01 888.33 393.02 888.66 392 889 C390.36928038 889.09073714 388.73506098 889.12375272 387.10181904 889.12304783 C386.08534227 889.1250387 385.06886551 889.12702957 384.02158642 889.12908077 C382.90226884 889.12616811 381.78295126 889.12325544 380.62971497 889.12025452 C379.44579163 889.12111053 378.26186829 889.12196655 377.04206848 889.12284851 C373.74373717 889.12421881 370.44546475 889.12107071 367.14714052 889.11607273 C363.54026902 889.11171581 359.93339909 889.1131667 356.32652569 889.11389065 C349.32032026 889.11442301 342.31412761 889.10979888 335.30792547 889.10338932 C327.20638101 889.09619907 319.10484426 889.0953951 311.0032959 889.09460449 C289.6063619 889.08935071 268.20943076 889.07538965 246.8125 889.0625 C175.1303125 889.0315625 175.1303125 889.0315625 102 889 C102 1057.96 102 1226.92 102 1401 C-1.29 1401 -104.58 1401 -211 1401 C-211 1381.47823767 -211 1381.47823767 -207.51171875 1374.078125 C-207.1418988 1373.22630646 -206.77207886 1372.37448792 -206.39105225 1371.49685669 C-205.18453908 1368.73455356 -203.93638819 1365.99336753 -202.6875 1363.25 C-201.81904901 1361.27960785 -200.95396447 1359.30772892 -200.09204102 1357.33447266 C-198.30281785 1353.24543724 -196.49945392 1349.16310317 -194.68554688 1345.08496094 C-190.87807102 1336.49574135 -187.24570168 1327.83351632 -183.61123657 1319.17004395 C-182.03637063 1315.41978207 -180.45303762 1311.67311778 -178.87007141 1307.92626953 C-173.88703377 1296.12852402 -168.93973691 1284.31592634 -164 1272.5 C-155.51272117 1252.19829907 -146.95922142 1231.92492528 -138.39111328 1211.65722656 C-136.0079617 1206.0195042 -133.62672458 1200.3809747 -131.24609375 1194.7421875 C-130.85442017 1193.81446533 -130.46274658 1192.88674316 -130.0592041 1191.9309082 C-128.87277048 1189.12061908 -127.68637717 1186.31031295 -126.5 1183.5 C-122.13904003 1173.16967455 -117.77805198 1162.8393634 -113.41186523 1152.51124573 C-111.41994803 1147.79935907 -109.42856203 1143.08724808 -107.4375 1138.375 C-107.04467834 1137.44531403 -106.65185669 1136.51562805 -106.24713135 1135.55776978 C-100.04850708 1120.88408324 -93.89142751 1106.19333528 -87.75021362 1091.49554443 C-82.03317636 1077.81640769 -76.25654632 1064.16365441 -70.44519043 1050.52435303 C-64.9569794 1037.64035397 -59.52406302 1024.73409831 -54.125 1011.8125 C-47.96531514 997.07150792 -41.78065602 982.3414301 -35.5625 967.625 C-35.16903381 966.69378326 -34.77556763 965.76256653 -34.37017822 964.8031311 C-32.37755898 960.08765944 -30.38444093 955.3723988 -28.39111328 950.65722656 C-24.81985323 942.20884552 -21.25292469 933.75863562 -17.68566895 925.30856323 C-15.71116066 920.63143021 -13.73644892 915.95438309 -11.76171875 911.27734375 C-11.37045807 910.35065384 -10.97919739 909.42396393 -10.57608032 908.4691925 C-8.17126083 902.77358528 -5.76602988 897.078152 -3.36050415 891.38284302 C4.75860878 872.16003572 12.87352272 852.93550383 20.96704102 833.7019043 C24.89275481 824.37301498 28.82339467 815.04622983 32.76171875 805.72265625 C33.17108673 804.7534726 33.58045471 803.78428894 34.00222778 802.78573608 C35.9728644 798.12056441 37.94402836 793.45561653 39.91601562 788.79101562 C46.64251015 772.87402299 53.32260497 756.93763605 60 741 C-18.95478293 741.30016457 -18.95478293 741.30016457 -97.875 743.4375 C-98.70307663 743.47036354 -99.53115326 743.50322708 -100.38432312 743.53708649 C-109.77346604 743.91218487 -119.16143822 744.31229566 -128.54909134 744.72278786 C-136.15157645 745.05343037 -143.75529051 745.34943484 -151.359375 745.640625 C-152.60288727 745.68828506 -153.84639954 745.73594513 -155.12759399 745.78504944 C-157.50256067 745.87598892 -159.87753004 745.96685787 -162.25250244 746.05764771 C-167.41071595 746.25625596 -172.56866039 746.46145062 -177.7265625 746.66796875 C-179.00862579 746.71929962 -179.00862579 746.71929962 -180.31658936 746.77166748 C-182.21106547 746.84763129 -184.10553381 746.92378899 -186 747 C-185.39570209 741.48206618 -184.45566125 736.22148691 -183.11523438 730.83911133 C-182.92352881 730.05378997 -182.73182325 729.26846861 -182.53430843 728.45934963 C-181.89182765 725.8324836 -181.24281552 723.2072774 -180.59375 720.58203125 C-180.12513462 718.67259371 -179.65688892 716.7630654 -179.1889801 714.85345459 C-177.90298292 709.61074226 -176.61100067 704.36952124 -175.3177681 699.12858963 C-174.21675683 694.6639351 -173.11893432 690.19849879 -172.02100849 685.73308468 C-168.19222589 670.16258258 -164.34879688 654.59570468 -160.50163555 639.02973557 C-159.99574355 636.98277742 -159.48991729 634.93580304 -158.98410797 632.88882446 C-154.20950867 613.56671351 -149.42825525 594.24625687 -144.63997066 574.92753273 C-143.60576922 570.75491771 -142.57194812 566.58220873 -141.53847539 562.40941316 C-133.29481217 529.12556013 -124.9609244 495.86589757 -116.51892656 462.631782 C-115.56644464 458.88207666 -114.61408377 455.13234059 -113.66186523 451.38256836 C-113.47165098 450.63352065 -113.28143672 449.88447294 -113.0854584 449.11272681 C-108.47840053 430.96723522 -103.90901775 412.81229293 -99.34375 394.65625 C-98.93563729 393.03339461 -98.52751999 391.41054038 -98.11939812 389.7876873 C-95.24528349 378.35870499 -92.37250049 366.92938809 -89.5 355.5 C-86.21961933 342.44769802 -82.93871272 329.39552855 -79.65625 316.34375 C-79.35313723 315.13845512 -79.35313723 315.13845512 -79.04390097 313.90881085 C-72.84216104 289.24933075 -66.61035862 264.59760877 -60.35553026 239.95154452 C-52.05618135 207.24918063 -43.80774604 174.53411001 -35.57441497 141.81506908 C-34.06057424 135.79933769 -32.54590866 129.78381423 -31.03103817 123.76834208 C-29.31875776 116.96886551 -27.60711132 110.16922948 -25.89569473 103.36953545 C-25.20017388 100.60617786 -24.50447089 97.84286626 -23.80855942 95.07960701 C-15.8306108 63.39687726 -7.91985977 31.69728817 0 0 Z M102 241 C102 375.31 102 509.62 102 648 C177.054375 648.0928125 177.054375 648.0928125 253.625 648.1875 C277.25665771 648.22846802 277.25665771 648.22846802 301.36572266 648.27026367 C315.58232019 648.28030171 315.58232019 648.28030171 329.79891968 648.28633118 C336.09346953 648.28910752 342.38793777 648.30002058 348.6824646 648.31672668 C355.96932333 648.33603737 363.25610493 648.34445865 370.54298934 648.34033485 C374.2579742 648.33855376 377.97278749 648.34105566 381.68773961 648.35764539 C447.95668267 648.63857244 512.87188111 634.84469928 562 588 C562.79148438 587.26136719 563.58296875 586.52273438 564.3984375 585.76171875 C599.33715349 552.2328106 614.23136776 501.21155422 615.28515625 454.03515625 C615.97381088 413.78056592 610.37614745 374.76002909 591 339 C590.42378906 337.93136719 589.84757812 336.86273438 589.25390625 335.76171875 C583.38177324 325.305796 576.1936901 316.02818005 568.04296875 307.25390625 C566.62200922 305.68623197 565.25912499 304.06475094 563.9453125 302.40625 C561.0123144 298.77828447 557.57548362 295.98047947 554 293 C553.25194092 292.35949707 553.25194092 292.35949707 552.48876953 291.70605469 C509.31877265 254.84265361 450.4756901 240.73841873 394.69949341 240.87974548 C393.44097565 240.87888947 392.18245789 240.87803345 390.88580322 240.87715149 C387.42997702 240.87493446 383.97418248 240.878886 380.51836029 240.88392727 C376.72036966 240.88832978 372.92238023 240.88683032 369.12438774 240.88610935 C361.76955903 240.88558014 354.41474264 240.89017354 347.05991708 240.89661068 C338.54311737 240.90384013 330.02632494 240.90460704 321.50952148 240.90539551 C299.04801238 240.91063552 276.586506 240.92459673 254.125 240.9375 C203.92375 240.958125 153.7225 240.97875 102 241 Z " fill="#FFFFFF" transform="translate(3583,3)"/>
<path d="M0 0 C2.37879543 0.28923319 4.75882406 0.5662536 7.13922119 0.84197998 C56.59342718 6.62487001 105.49985612 16.23063923 154.23834229 26.27215576 C153.54694404 37.94966458 152.26822724 49.53300632 150.93756104 61.15130615 C150.70234181 63.2240222 150.46737366 65.29676676 150.2326355 67.36953735 C149.59897853 72.95801761 148.96168247 78.54607718 148.3235817 84.13405156 C147.65488696 89.99444557 146.98919235 95.85518048 146.32305908 101.71586609 C145.20539269 111.54500287 144.08537977 121.37387009 142.96392822 131.20257568 C141.66745646 142.56543945 140.37459086 153.92870912 139.08366299 165.29220396 C137.83997826 176.23919763 136.59388708 187.18591605 135.34664917 198.13250542 C134.81640264 202.78660991 134.28697818 207.44080683 133.75820923 212.09507942 C133.13635821 217.5676172 132.51239566 223.03991019 131.88679123 228.51202011 C131.65748667 230.52070633 131.42890654 232.52947539 131.2010994 234.53833199 C130.89036755 237.27735526 130.57702163 240.01606714 130.26300049 242.75471497 C130.17321269 243.55159117 130.08342489 244.34846738 129.99091625 245.16949135 C129.55907837 248.91137798 129.0534496 252.5932444 128.23834229 256.27215576 C120.09822145 255.57755293 112.24786563 253.88419534 104.27740479 252.13934326 C102.80479926 251.82076825 101.33208963 251.50267412 99.85928345 251.18502808 C95.97573806 250.34648261 92.09327078 249.50305972 88.21112061 248.65808105 C81.35943958 247.16701305 74.5065541 245.68152324 67.65240479 244.20184326 C66.89882439 244.03915388 66.14524399 243.8764645 65.36882782 243.70884514 C53.69440063 241.19256717 42.00292389 238.77010125 30.29302979 236.42449951 C29.5754311 236.28025921 28.85783241 236.13601891 28.11848831 235.98740768 C-2.24597964 229.8955351 -32.72741612 225.60468304 -63.76165771 226.27215576 C-64.68929932 226.2900415 -65.61694092 226.30792725 -66.57269287 226.32635498 C-143.09923683 227.96989418 -218.20109088 243.14860925 -396.76165771 329.27215576 C-397.36977295 329.6927124 -397.97788818 330.11326904 -398.60443115 330.54656982 C-412.14490705 339.95857921 -425.27367572 349.95637943 -437.76947021 360.71746826 C-440.64084712 363.16900938 -443.56444129 365.53774981 -446.51165771 367.89715576 C-450.83906909 371.41435514 -454.76754333 375.17089675 -458.65618896 379.16278076 C-460.58344638 381.0936138 -462.56104335 382.87888389 -464.63665771 384.64715576 C-471.91817483 390.91129523 -478.67567748 397.82658849 -484.90228271 405.13543701 C-486.75644987 407.26617112 -488.67356235 409.32918085 -490.60467529 411.39007568 C-496.55372504 417.76236166 -501.96625472 424.44034019 -507.27093506 431.35321045 C-508.81315546 433.33844667 -510.38685206 435.29493464 -511.96868896 437.24871826 C-526.72123285 455.60293241 -539.47000167 475.6208602 -550.76165771 496.27215576 C-551.46983643 497.56307129 -551.46983643 497.56307129 -552.19232178 498.88006592 C-580.26212751 550.4276124 -596.90297596 605.94351739 -602.76165771 664.27215576 C-602.91960815 665.81963501 -602.91960815 665.81963501 -603.08074951 667.39837646 C-604.15161079 679.76039912 -603.96039096 692.18689866 -603.94915771 704.58465576 C-603.94855347 705.81035278 -603.94794922 707.0360498 -603.94732666 708.29888916 C-603.92137473 727.70144026 -603.56286416 746.9434486 -601.76165771 766.27215576 C-601.66691162 767.29460388 -601.66691162 767.29460388 -601.57025146 768.33770752 C-594.1845441 847.1864694 -573.68955854 926.70595021 -522.76165771 989.27215576 C-522.34384033 989.78616943 -521.92602295 990.30018311 -521.49554443 990.82977295 C-506.5781189 1009.08023198 -490.22321368 1025.69661438 -471.45111084 1039.97674561 C-469.81575714 1041.23067432 -468.20054689 1042.50638546 -466.58978271 1043.79168701 C-446.13280013 1060.02278412 -422.98788486 1072.51822698 -399.76165771 1084.27215576 C-398.98693115 1084.66757568 -398.21220459 1085.06299561 -397.41400146 1085.47039795 C-325.78989353 1121.76293565 -242.12433657 1138.94431976 -25.85797882 1148.94168854 C-24.43704585 1148.80523417 -23.01610162 1148.66889688 -21.59514618 1148.5326767 C-14.49136919 1147.85165307 -7.38792671 1147.16833532 -0.28695965 1146.45852947 C1.73865643 1146.25663738 3.76450163 1146.05723584 5.79045105 1145.85871887 C8.28388648 1145.61392517 10.77689934 1145.36476902 13.2693634 1145.11027527 C20.62133826 1144.39492103 27.85446424 1144.15418065 35.23834229 1144.27215576 C34.61829197 1157.57103445 33.12897997 1170.72165146 31.55450439 1183.93621826 C31.27812401 1186.28333201 31.00212873 1188.63049113 30.72648621 1190.97769165 C29.98253056 1197.303453 29.2332369 1203.62857158 28.48293376 1209.95358276 C27.77743439 1215.90800079 27.07599184 1221.86289616 26.37451083 1227.8177886 C24.98642329 1239.60018234 23.59446223 1251.38211502 22.20001221 1263.16375732 C20.84671664 1274.59775966 19.49527835 1286.03197903 18.14630127 1297.4664917 C18.06292812 1298.17319307 17.97955496 1298.87989444 17.89365535 1299.60801101 C17.47534192 1303.15388627 17.05706462 1306.69976579 16.63880527 1310.24564743 C13.17758391 1339.58847911 9.70998836 1368.93055561 6.23834229 1398.27215576 C4.65258263 1398.59913626 3.06625908 1398.92338272 1.47970581 1399.24649048 C0.59638391 1399.42735136 -0.28693798 1399.60821224 -1.19702721 1399.79455376 C-4.58229973 1400.424981 -7.92713306 1400.70083983 -11.36322021 1400.90496826 C-12.06019012 1400.94666641 -12.75716003 1400.98836456 -13.47525024 1401.03132629 C-15.77861731 1401.16384123 -18.08234407 1401.28232354 -20.38665771 1401.39715576 C-21.20464844 1401.43918121 -22.02263916 1401.48120667 -22.86541748 1401.52450562 C-57.08215854 1403.23607848 -91.38600617 1402.32135818 -125.62176514 1401.69647217 C-141.06850173 1401.41905323 -156.51420959 1401.21317052 -171.96291733 1401.07989693 C-175.02459239 1401.05332741 -178.08625601 1401.02568371 -181.1479187 1400.99772644 C-183.20178202 1400.9790724 -185.25564554 1400.96044145 -187.30950928 1400.9418335 C-188.32858557 1400.93259826 -189.34766186 1400.92336302 -190.39761925 1400.91384792 C-195.43019633 1400.86897133 -200.4627598 1400.82749483 -205.49542236 1400.79342651 C-235.11605512 1400.59100295 -264.68968672 1400.06130097 -294.13665771 1396.52215576 C-295.18939377 1396.39810364 -295.18939377 1396.39810364 -296.26339722 1396.27154541 C-369.80627794 1387.54785779 -440.55607595 1366.40695653 -506.76165771 1333.27215576 C-507.89844971 1332.70770752 -509.0352417 1332.14325928 -510.20648193 1331.56170654 C-552.08219188 1310.69311242 -591.11244697 1284.30659761 -626.66009521 1253.90106201 C-629.58614371 1251.40488527 -632.57522524 1248.99288942 -635.57415771 1246.58465576 C-639.50283193 1243.39047281 -643.13255044 1240.06161308 -646.61712646 1236.38934326 C-648.42153454 1234.60794221 -650.25642141 1232.98182152 -652.18353271 1231.33856201 C-657.74044677 1226.51260132 -662.89704821 1221.28625434 -668.08905029 1216.07513428 C-669.82060471 1214.33821976 -671.5574413 1212.60671687 -673.29486084 1210.87567139 C-678.99932727 1205.17462747 -684.52984629 1199.41511006 -689.76165771 1193.27215576 C-691.38133588 1191.49645355 -693.00577489 1189.72507269 -694.63665771 1187.95965576 C-698.67567925 1183.52584265 -702.53672649 1178.99160992 -706.30072021 1174.32293701 C-708.09446007 1172.09926903 -709.90038155 1169.89017098 -711.72259521 1167.69012451 C-732.98247171 1141.93591861 -751.9424304 1114.11409351 -768.76165771 1085.27215576 C-769.40771973 1084.17508301 -769.40771973 1084.17508301 -770.0668335 1083.05584717 C-804.93503936 1023.74673617 -829.9077996 959.88703959 -846.76165771 893.27215576 C-846.92903442 892.61489502 -847.09641113 891.95763428 -847.26885986 891.28045654 C-859.27036974 844.09113224 -865.69006062 795.81353404 -868.76165771 747.27215576 C-868.86969727 745.57856934 -868.86969727 745.57856934 -868.97991943 743.85076904 C-873.6849133 665.26364341 -864.37665101 586.50727028 -791.20452881 397.81365967 C-789.73667004 395.22814194 -788.28912062 392.63198606 -786.84368896 390.03387451 C-776.46695651 371.49736636 -765.03884547 353.60614466 -752.76165771 336.27215576 C-752.24748291 335.54544678 -751.73330811 334.81873779 -751.20355225 334.07000732 C-743.99572034 323.91538683 -736.57811139 313.96627084 -728.76165771 304.27215576 C-728.00368896 303.33114014 -727.24572021 302.39012451 -726.46478271 301.42059326 C-721.14357648 294.87286786 -715.70431829 288.42613228 -710.23382568 282.00311279 C-708.69915648 280.19866758 -707.16982351 278.38978057 -705.64056396 276.58074951 C-696.49306891 265.79347495 -696.49306891 265.79347495 -691.42498779 260.9364624 C-689.81800845 259.32853958 -688.36572889 257.66312156 -686.90228271 255.92449951 C-681.91821628 250.19318394 -676.5147807 244.87596548 -671.13739014 239.51751709 C-669.32804839 237.71353491 -667.52411452 235.90426911 -665.72064209 234.09442139 C-660.4353164 228.80604688 -655.15516733 223.57535956 -649.45916748 218.72454834 C-646.70745854 216.37018094 -644.08998678 213.87418341 -641.44915771 211.39715576 C-636.62929694 206.91348307 -631.68661793 202.65591346 -626.55072021 198.53387451 C-624.07491458 196.52618339 -621.64785638 194.47177739 -619.2321167 192.39251709 C-611.72654734 185.94588192 -603.92646623 179.93310327 -596.02288818 173.98455811 C-593.79938414 172.30072552 -591.59368849 170.59581549 -589.39056396 168.88543701 C-573.75823272 156.8405512 -557.27197008 146.06129731 -540.76165771 135.27215576 C-539.79776123 134.64115967 -538.83386475 134.01016357 -537.84075928 133.36004639 C-515.91132434 119.07048855 -492.92651955 106.42827134 -469.76165771 94.27215576 C-468.87188232 93.80390381 -467.98210693 93.33565186 -467.06536865 92.85321045 C-393.44893055 54.37507982 -311.60343213 27.84151306 -221.76165771 11.27215576 C-221.03768799 11.14407532 -220.31371826 11.01599487 -219.56781006 10.8840332 C-183.96399547 4.61145141 -147.86556467 0.25650833 -111.76165771 -1.72784424 C-110.7170639 -1.78929626 -110.7170639 -1.78929626 -109.65136719 -1.85198975 C-73.28411836 -3.96715627 -36.2070096 -4.43525813 0 0 Z " fill="#FFFFFF" transform="translate(3218.7616577148438,2.72784423828125)"/>
<path d="M0 0 C1.238268 0.0018986 2.47653599 0.0037972 3.75232726 0.00575334 C4.79080426 -0.00290049 4.79080426 -0.00290049 5.85026059 -0.01172915 C8.18787385 -0.02504465 10.52379117 -0.00247145 12.86131793 0.0197199 C14.54682976 0.01754101 16.23233996 0.01316585 17.91784108 0.00677407 C22.56312038 -0.0044448 27.20782697 0.01564635 31.85303324 0.04066437 C36.85711749 0.062195 41.8611677 0.0549542 46.86528522 0.051153 C55.53974283 0.04852732 64.21401284 0.06425565 72.88842326 0.0923422 C85.43023475 0.13292449 97.97195524 0.14599402 110.51382528 0.15228216 C130.86060871 0.16323363 151.20729209 0.19653094 171.55402118 0.24379522 C191.32257076 0.28966875 211.0910932 0.32507146 230.85968524 0.34633428 C232.07759127 0.3476479 233.29549729 0.34896151 234.55030956 0.35031494 C240.65999856 0.35683998 246.76968775 0.36315855 252.87937707 0.36937445 C303.59008606 0.42123401 354.30068645 0.50932248 405.01129657 0.62099248 C403.86875022 4.14005542 402.81970743 7.27788063 400.78864032 10.37880498 C400.11780414 11.41883672 400.11780414 11.41883672 399.43341571 12.4798792 C398.94349139 13.22769658 398.45356708 13.97551397 397.94879657 14.74599248 C392.69038995 22.91741141 387.5986454 31.17996453 382.57379657 39.49599248 C377.53056075 47.83363389 372.46673621 56.15678511 367.32379657 64.43349248 C362.84667063 71.63894318 358.41421126 78.86995181 354.01129657 86.12099248 C349.01855678 94.343073 343.97956742 102.53462922 338.90582782 110.70692998 C334.90590526 117.15716831 330.95067527 123.63362712 327.01129657 130.12099248 C322.0185385 138.34306207 316.97956754 146.53462901 311.90582782 154.70692998 C307.90590526 161.15716831 303.95067527 167.63362712 300.01129657 174.12099248 C295.0185385 182.34306207 289.97956754 190.53462901 284.90582782 198.70692998 C280.90590526 205.15716831 276.95067527 211.63362712 273.01129657 218.12099248 C268.0185385 226.34306207 262.97956754 234.53462901 257.90582782 242.70692998 C253.90590526 249.15716831 249.95067527 255.63362712 246.01129657 262.12099248 C241.0185385 270.34306207 235.97956754 278.53462901 230.90582782 286.70692998 C226.90590526 293.15716831 222.95067527 299.63362712 219.01129657 306.12099248 C214.0185385 314.34306207 208.97956754 322.53462901 203.90582782 330.70692998 C199.90590526 337.15716831 195.95067527 343.63362712 192.01129657 350.12099248 C187.0185385 358.34306207 181.97956754 366.53462901 176.90582782 374.70692998 C172.90590526 381.15716831 168.95067527 387.63362712 165.01129657 394.12099248 C160.0185385 402.34306207 154.97956754 410.53462901 149.90582782 418.70692998 C145.90590526 425.15716831 141.95067527 431.63362712 138.01129657 438.12099248 C133.0185385 446.34306207 127.97956754 454.53462901 122.90582782 462.70692998 C118.90590526 469.15716831 114.95067527 475.63362712 111.01129657 482.12099248 C106.0185385 490.34306207 100.97956754 498.53462901 95.90582782 506.70692998 C91.90590526 513.15716831 87.95067527 519.63362712 84.01129657 526.12099248 C79.0185385 534.34306207 73.97956754 542.53462901 68.90582782 550.70692998 C64.90590526 557.15716831 60.95067527 563.63362712 57.01129657 570.12099248 C52.0185385 578.34306207 46.97956754 586.53462901 41.90582782 594.70692998 C37.90590526 601.15716831 33.95067527 607.63362712 30.01129657 614.12099248 C25.0185385 622.34306207 19.97956754 630.53462901 14.90582782 638.70692998 C10.90590526 645.15716831 6.95067527 651.63362712 3.01129657 658.12099248 C-1.45477727 665.47571894 -5.95022367 672.81072192 -10.48870343 680.12099248 C-14.96268789 687.32828806 -19.39732686 694.55814742 -23.80120343 701.80849248 C-32.15085033 715.55338542 -40.59162586 729.24181064 -49.02971905 742.93251592 C-56.69087937 755.36445632 -64.33007439 767.80868758 -71.91106671 780.28969365 C-76.26681551 787.45354198 -80.67270915 794.58518288 -85.0949046 801.70815068 C-89.09462111 808.15795849 -93.0495711 814.63403283 -96.98870343 821.12099248 C-101.9814615 829.34306207 -107.02043246 837.53462901 -112.09417218 845.70692998 C-116.09409474 852.15716831 -120.04932473 858.63362712 -123.98870343 865.12099248 C-128.9814615 873.34306207 -134.02043246 881.53462901 -139.09417218 889.70692998 C-143.09409474 896.15716831 -147.04932473 902.63362712 -150.98870343 909.12099248 C-155.9814615 917.34306207 -161.02043246 925.53462901 -166.09417218 933.70692998 C-170.09409474 940.15716831 -174.04932473 946.63362712 -177.98870343 953.12099248 C-182.9814615 961.34306207 -188.02043246 969.53462901 -193.09417218 977.70692998 C-197.09409474 984.15716831 -201.04932473 990.63362712 -204.98870343 997.12099248 C-209.9814615 1005.34306207 -215.02043246 1013.53462901 -220.09417218 1021.70692998 C-224.09409474 1028.15716831 -228.04932473 1034.63362712 -231.98870343 1041.12099248 C-236.9814615 1049.34306207 -242.02043246 1057.53462901 -247.09417218 1065.70692998 C-251.09409474 1072.15716831 -255.04932473 1078.63362712 -258.98870343 1085.12099248 C-263.9814615 1093.34306207 -269.02043246 1101.53462901 -274.09417218 1109.70692998 C-278.09409474 1116.15716831 -282.04932473 1122.63362712 -285.98870343 1129.12099248 C-290.9814615 1137.34306207 -296.02043246 1145.53462901 -301.09417218 1153.70692998 C-305.09409474 1160.15716831 -309.04932473 1166.63362712 -312.98870343 1173.12099248 C-317.9814615 1181.34306207 -323.02043246 1189.53462901 -328.09417218 1197.70692998 C-332.09409474 1204.15716831 -336.04932473 1210.63362712 -339.98870343 1217.12099248 C-344.9814615 1225.34306207 -350.02043246 1233.53462901 -355.09417218 1241.70692998 C-359.09409474 1248.15716831 -363.04932473 1254.63362712 -366.98870343 1261.12099248 C-371.9814615 1269.34306207 -377.02043246 1277.53462901 -382.09417218 1285.70692998 C-386.09409474 1292.15716831 -390.04932473 1298.63362712 -393.98870343 1305.12099248 C-398.45477727 1312.47571894 -402.95022367 1319.81072192 -407.48870343 1327.12099248 C-411.96268813 1334.32828844 -416.39729317 1341.55816755 -420.80120343 1348.80849248 C-425.92343616 1357.23973363 -431.06969105 1365.65586064 -436.23870343 1374.05849248 C-436.86365704 1375.07515996 -437.48861066 1376.09182744 -438.13250226 1377.13930303 C-439.35618049 1379.12684248 -440.59501072 1381.10515317 -441.85064346 1383.07266122 C-443.39229368 1385.54663649 -444.71242074 1388.05755308 -445.97848135 1390.6823929 C-451.5239091 1401.61352198 -451.5239091 1401.61352198 -457.58393472 1404.09052259 C-461.94002538 1404.83779533 -466.27990057 1404.68055264 -470.68050641 1404.54506475 C-472.37209745 1404.55204971 -474.06367148 1404.56607353 -475.75515372 1404.58649141 C-480.38663954 1404.62216456 -485.01217246 1404.55845688 -489.64289945 1404.47804242 C-494.64208119 1404.4087948 -499.64094077 1404.43233905 -504.64046735 1404.44447881 C-513.29643149 1404.45285952 -521.95046266 1404.40276256 -530.60594052 1404.31267339 C-543.11987884 1404.182509 -555.6328847 1404.14095783 -568.14742659 1404.12086552 C-588.45198206 1404.08586718 -608.75550774 1403.9794442 -629.05950421 1403.82802373 C-648.780155 1403.68110681 -668.50052586 1403.56787862 -688.22161359 1403.49989873 C-689.43768055 1403.49569516 -690.65374751 1403.49149158 -691.90666498 1403.48716062 C-698.00745795 1403.46627967 -704.1082529 1403.44606043 -710.20904917 1403.42617017 C-760.8029789 1403.26036438 -811.39579088 1402.97860962 -861.98870343 1402.62099248 C-860.66008579 1399.22844735 -859.2263645 1396.12660204 -857.37151593 1392.98817998 C-856.85363507 1392.11016729 -856.33575421 1391.23215459 -855.80217999 1390.32753545 C-854.96638409 1388.92592168 -854.96638409 1388.92592168 -854.11370343 1387.49599248 C-853.53072491 1386.51388799 -852.9477464 1385.5317835 -852.34710187 1384.51991826 C-848.26957254 1377.68393042 -844.07145741 1370.93484875 -839.78972882 1364.22548467 C-835.2736402 1357.12783397 -830.90545969 1349.94344165 -826.55120343 1342.74599248 C-821.50674813 1334.40907593 -816.44415499 1326.08521904 -811.30120343 1317.80849248 C-806.82407749 1310.60304178 -802.39161812 1303.37203316 -797.98870343 1296.12099248 C-792.99596364 1287.89891196 -787.95697428 1279.70735574 -782.88323468 1271.53505498 C-778.88331212 1265.08481666 -774.92808213 1258.60835785 -770.98870343 1252.12099248 C-765.99594536 1243.89892289 -760.9569744 1235.70735595 -755.88323468 1227.53505498 C-751.88331212 1221.08481666 -747.92808213 1214.60835785 -743.98870343 1208.12099248 C-738.99594536 1199.89892289 -733.9569744 1191.70735595 -728.88323468 1183.53505498 C-724.88331212 1177.08481666 -720.92808213 1170.60835785 -716.98870343 1164.12099248 C-711.99594536 1155.89892289 -706.9569744 1147.70735595 -701.88323468 1139.53505498 C-697.88331212 1133.08481666 -693.92808213 1126.60835785 -689.98870343 1120.12099248 C-684.99594536 1111.89892289 -679.9569744 1103.70735595 -674.88323468 1095.53505498 C-670.88331212 1089.08481666 -666.92808213 1082.60835785 -662.98870343 1076.12099248 C-657.99594536 1067.89892289 -652.9569744 1059.70735595 -647.88323468 1051.53505498 C-643.88331212 1045.08481666 -639.92808213 1038.60835785 -635.98870343 1032.12099248 C-630.99594536 1023.89892289 -625.9569744 1015.70735595 -620.88323468 1007.53505498 C-616.88331212 1001.08481666 -612.92808213 994.60835785 -608.98870343 988.12099248 C-603.99594536 979.89892289 -598.9569744 971.70735595 -593.88323468 963.53505498 C-589.88331212 957.08481666 -585.92808213 950.60835785 -581.98870343 944.12099248 C-576.99594536 935.89892289 -571.9569744 927.70735595 -566.88323468 919.53505498 C-562.88331212 913.08481666 -558.92808213 906.60835785 -554.98870343 900.12099248 C-549.99594536 891.89892289 -544.9569744 883.70735595 -539.88323468 875.53505498 C-535.88331212 869.08481666 -531.92808213 862.60835785 -527.98870343 856.12099248 C-522.99594536 847.89892289 -517.9569744 839.70735595 -512.88323468 831.53505498 C-508.88331212 825.08481666 -504.92808213 818.60835785 -500.98870343 812.12099248 C-495.99594536 803.89892289 -490.9569744 795.70735595 -485.88323468 787.53505498 C-481.88331167 781.08481594 -477.92815313 774.60831524 -473.98870343 768.12099248 C-469.03818723 759.9702871 -464.04801131 751.84572804 -459.02166241 743.74159795 C-448.9636976 727.52356472 -438.97421323 711.2640995 -429.06707257 694.95351201 C-424.71109532 687.78924708 -420.30494803 680.65720528 -415.88250226 673.53383428 C-411.88278575 667.08402647 -407.92783576 660.60795213 -403.98870343 654.12099248 C-398.99594536 645.89892289 -393.9569744 637.70735595 -388.88323468 629.53505498 C-384.88331212 623.08481666 -380.92808213 616.60835785 -376.98870343 610.12099248 C-371.99594536 601.89892289 -366.9569744 593.70735595 -361.88323468 585.53505498 C-357.88331212 579.08481666 -353.92808213 572.60835785 -349.98870343 566.12099248 C-344.99594536 557.89892289 -339.9569744 549.70735595 -334.88323468 541.53505498 C-330.88331212 535.08481666 -326.92808213 528.60835785 -322.98870343 522.12099248 C-317.99594536 513.89892289 -312.9569744 505.70735595 -307.88323468 497.53505498 C-303.88331212 491.08481666 -299.92808213 484.60835785 -295.98870343 478.12099248 C-290.99594536 469.89892289 -285.9569744 461.70735595 -280.88323468 453.53505498 C-276.88331212 447.08481666 -272.92808213 440.60835785 -268.98870343 434.12099248 C-263.99594536 425.89892289 -258.9569744 417.70735595 -253.88323468 409.53505498 C-249.88331212 403.08481666 -245.92808213 396.60835785 -241.98870343 390.12099248 C-236.99594536 381.89892289 -231.9569744 373.70735595 -226.88323468 365.53505498 C-222.88331212 359.08481666 -218.92808213 352.60835785 -214.98870343 346.12099248 C-209.99594536 337.89892289 -204.9569744 329.70735595 -199.88323468 321.53505498 C-195.88331212 315.08481666 -191.92808213 308.60835785 -187.98870343 302.12099248 C-182.99594536 293.89892289 -177.9569744 285.70735595 -172.88323468 277.53505498 C-168.88331212 271.08481666 -164.92808213 264.60835785 -160.98870343 258.12099248 C-155.99594536 249.89892289 -150.9569744 241.70735595 -145.88323468 233.53505498 C-141.88331212 227.08481666 -137.92808213 220.60835785 -133.98870343 214.12099248 C-128.99594536 205.89892289 -123.9569744 197.70735595 -118.88323468 189.53505498 C-114.88331212 183.08481666 -110.92808213 176.60835785 -106.98870343 170.12099248 C-101.99594536 161.89892289 -96.9569744 153.70735595 -91.88323468 145.53505498 C-87.88331212 139.08481666 -83.92808213 132.60835785 -79.98870343 126.12099248 C-74.99594536 117.89892289 -69.9569744 109.70735595 -64.88323468 101.53505498 C-60.88331212 95.08481666 -56.92808213 88.60835785 -52.98870343 82.12099248 C-47.99594536 73.89892289 -42.9569744 65.70735595 -37.88323468 57.53505498 C-33.29253409 50.13213344 -28.76425309 42.69216631 -24.2433421 35.24648076 C-19.59063416 27.59124789 -14.88859115 19.96745948 -10.16253155 12.35732061 C-9.4055296 11.13818975 -9.4055296 11.13818975 -8.63323468 9.89442998 C-8.19342267 9.18721807 -7.75361066 8.48000615 -7.30047101 7.75136358 C-5.91057364 5.59821697 -5.91057364 5.59821697 -4.82803237 3.02629673 C-2.98870343 0.62099248 -2.98870343 0.62099248 0 0 Z " fill="#FFCB03" transform="translate(1944.988703429699,8.379007518291473)"/>
<path d="M0 0 C4.99707091 0.0910857 9.99360667 0.0599725 14.99127471 0.04405224 C23.63958741 0.03306427 32.28456164 0.09868319 40.93203437 0.21704686 C53.43406303 0.38805855 65.93448504 0.44243976 78.43755647 0.46879468 C98.72419395 0.51470432 119.00905358 0.65431149 139.29472625 0.85314953 C158.99483135 1.04604655 178.69445278 1.19462387 198.39531219 1.2838136 C199.61059098 1.28933079 200.82586977 1.29484798 202.07797519 1.30053236 C208.17495498 1.32793907 214.27193818 1.35447672 220.36892366 1.38058233 C270.91304658 1.59812187 321.45523994 1.9678522 371.99760711 2.43737805 C370.66898947 5.82992318 369.23526818 8.93176849 367.38041961 12.07019055 C366.60359832 13.38720959 366.60359832 13.38720959 365.81108367 14.73083508 C365.25388641 15.66524426 364.69668914 16.59965344 364.12260711 17.56237805 C363.5396286 18.54448254 362.95665008 19.52658703 362.35600555 20.53845227 C358.27847623 27.37444011 354.08036109 34.12352178 349.7986325 40.83288586 C345.28254388 47.93053656 340.91436337 55.11492888 336.56010711 62.31237805 C331.51565181 70.6492946 326.45305867 78.97315149 321.31010711 87.24987805 C316.83298117 94.45532875 312.4005218 101.68633737 307.99760711 108.93737805 C303.00486732 117.15945857 297.96587796 125.35101479 292.89213836 133.52331555 C288.8922158 139.97355387 284.93698581 146.45001268 280.99760711 152.93737805 C276.00484904 161.15944764 270.96587809 169.35101458 265.89213836 177.52331555 C261.8922158 183.97355387 257.93698581 190.45001268 253.99760711 196.93737805 C249.00484904 205.15944764 243.96587809 213.35101458 238.89213836 221.52331555 C234.8922158 227.97355387 230.93698581 234.45001268 226.99760711 240.93737805 C222.00484904 249.15944764 216.96587809 257.35101458 211.89213836 265.52331555 C207.8922158 271.97355387 203.93698581 278.45001268 199.99760711 284.93737805 C195.00484904 293.15944764 189.96587809 301.35101458 184.89213836 309.52331555 C180.8922158 315.97355387 176.93698581 322.45001268 172.99760711 328.93737805 C168.00484904 337.15944764 162.96587809 345.35101458 157.89213836 353.52331555 C153.8922158 359.97355387 149.93698581 366.45001268 145.99760711 372.93737805 C141.00484904 381.15944764 135.96587809 389.35101458 130.89213836 397.52331555 C126.8922158 403.97355387 122.93698581 410.45001268 118.99760711 416.93737805 C114.53153327 424.29210451 110.03608687 431.62710749 105.49760711 438.93737805 C101.02362265 446.14467362 96.58898368 453.37453299 92.18510711 460.62487805 C83.83546021 474.36977099 75.39468468 488.05819621 66.95659149 501.74890149 C59.29543117 514.18084188 51.65623615 526.62507315 44.07524383 539.10607922 C39.71949503 546.26992754 35.31360139 553.40156845 30.89140594 560.52453625 C26.89168943 566.97434406 22.93673944 573.4504184 18.99760711 579.93737805 C14.00484904 588.15944764 8.96587809 596.35101458 3.89213836 604.52331555 C-0.1077842 610.97355387 -4.06301419 617.45001268 -8.00239289 623.93737805 C-12.99515096 632.15944764 -18.03412191 640.35101458 -23.10786164 648.52331555 C-27.1077842 654.97355387 -31.06301419 661.45001268 -35.00239289 667.93737805 C-39.99515096 676.15944764 -45.03412191 684.35101458 -50.10786164 692.52331555 C-54.1077842 698.97355387 -58.06301419 705.45001268 -62.00239289 711.93737805 C-66.99515096 720.15944764 -72.03412191 728.35101458 -77.10786164 736.52331555 C-81.1077842 742.97355387 -85.06301419 749.45001268 -89.00239289 755.93737805 C-93.99515096 764.15944764 -99.03412191 772.35101458 -104.10786164 780.52331555 C-108.1077842 786.97355387 -112.06301419 793.45001268 -116.00239289 799.93737805 C-120.99515096 808.15944764 -126.03412191 816.35101458 -131.10786164 824.52331555 C-135.1077842 830.97355387 -139.06301419 837.45001268 -143.00239289 843.93737805 C-147.99515096 852.15944764 -153.03412191 860.35101458 -158.10786164 868.52331555 C-162.1077842 874.97355387 -166.06301419 881.45001268 -170.00239289 887.93737805 C-174.99515096 896.15944764 -180.03412191 904.35101458 -185.10786164 912.52331555 C-189.1077842 918.97355387 -193.06301419 925.45001268 -197.00239289 931.93737805 C-201.99515096 940.15944764 -207.03412191 948.35101458 -212.10786164 956.52331555 C-216.1077842 962.97355387 -220.06301419 969.45001268 -224.00239289 975.93737805 C-228.99515096 984.15944764 -234.03412191 992.35101458 -239.10786164 1000.52331555 C-243.1077842 1006.97355387 -247.06301419 1013.45001268 -251.00239289 1019.93737805 C-255.99515096 1028.15944764 -261.03412191 1036.35101458 -266.10786164 1044.52331555 C-270.1077842 1050.97355387 -274.06301419 1057.45001268 -278.00239289 1063.93737805 C-282.46846673 1071.29210451 -286.96391313 1078.62710749 -291.50239289 1085.93737805 C-295.97637735 1093.14467362 -300.41101632 1100.37453299 -304.81489289 1107.62487805 C-313.16453979 1121.36977099 -321.60531532 1135.05819621 -330.04340851 1148.74890149 C-337.70456883 1161.18084188 -345.34376385 1173.62507315 -352.92475617 1186.10607922 C-357.28050497 1193.26992754 -361.68639861 1200.40156845 -366.10859406 1207.52453625 C-370.10831057 1213.97434406 -374.06326056 1220.4504184 -378.00239289 1226.93737805 C-382.99515096 1235.15944764 -388.03412191 1243.35101458 -393.10786164 1251.52331555 C-397.1077842 1257.97355387 -401.06301419 1264.45001268 -405.00239289 1270.93737805 C-409.99515096 1279.15944764 -415.03412191 1287.35101458 -420.10786164 1295.52331555 C-424.1077842 1301.97355387 -428.06301419 1308.45001268 -432.00239289 1314.93737805 C-436.99515096 1323.15944764 -442.03412191 1331.35101458 -447.10786164 1339.52331555 C-451.1077844 1345.97355419 -455.06298529 1352.45002994 -459.00239289 1358.93737805 C-472.64735381 1381.40585276 -472.64735381 1381.40585276 -477.33054125 1388.63919395 C-479.08710621 1391.45700807 -479.08710621 1391.45700807 -480.47996581 1394.7197898 C-484.89732457 1403.70024021 -484.89732457 1403.70024021 -490.41411412 1405.6320703 C-494.81023399 1406.08335609 -499.04343093 1406.11058912 -503.45368683 1406.00068676 C-505.14353755 1406.00635914 -506.83337708 1406.01774806 -508.52315581 1406.03434592 C-513.15839388 1406.0633818 -517.78971843 1406.01148284 -522.42445767 1405.94623113 C-527.42504239 1405.89004892 -532.42540944 1405.90909161 -537.42622101 1405.91896069 C-546.08740205 1405.92577495 -554.74730927 1405.88501659 -563.40816987 1405.81186879 C-575.93006314 1405.70618041 -588.45134096 1405.67235673 -600.97363192 1405.6560249 C-621.29020866 1405.62757803 -641.60610658 1405.54107941 -661.92231476 1405.41809094 C-681.65665523 1405.29874921 -701.39081126 1405.20673715 -721.12543976 1405.15148938 C-722.34203217 1405.14807397 -723.55862458 1405.14465857 -724.81208342 1405.14113966 C-730.91541826 1405.12417408 -737.0187544 1405.1077459 -743.12209141 1405.09158492 C-793.74932772 1404.95683423 -844.37582719 1404.72787858 -895.00239289 1404.43737805 C-893.85984653 1400.91831511 -892.81080374 1397.7804899 -890.77973664 1394.67956555 C-890.33251252 1393.98621106 -889.8852884 1393.29285656 -889.42451203 1392.57849133 C-888.93458771 1391.83067395 -888.4446634 1391.08285656 -887.93989289 1390.31237805 C-882.68148627 1382.14095912 -877.58974171 1373.878406 -872.56489289 1365.56237805 C-867.52165707 1357.22473664 -862.45783253 1348.90158542 -857.31489289 1340.62487805 C-852.83776695 1333.41942735 -848.40530758 1326.18841873 -844.00239289 1318.93737805 C-839.00965309 1310.71529753 -833.97066373 1302.52374131 -828.89692414 1294.35144055 C-824.89700157 1287.90120222 -820.94177159 1281.42474341 -817.00239289 1274.93737805 C-812.00963481 1266.71530846 -806.97066386 1258.52374152 -801.89692414 1250.35144055 C-797.89700157 1243.90120222 -793.94177159 1237.42474341 -790.00239289 1230.93737805 C-785.00963481 1222.71530846 -779.97066386 1214.52374152 -774.89692414 1206.35144055 C-770.89700157 1199.90120222 -766.94177159 1193.42474341 -763.00239289 1186.93737805 C-758.00963481 1178.71530846 -752.97066386 1170.52374152 -747.89692414 1162.35144055 C-743.89700157 1155.90120222 -739.94177159 1149.42474341 -736.00239289 1142.93737805 C-731.00963481 1134.71530846 -725.97066386 1126.52374152 -720.89692414 1118.35144055 C-716.89700157 1111.90120222 -712.94177159 1105.42474341 -709.00239289 1098.93737805 C-704.00963481 1090.71530846 -698.97066386 1082.52374152 -693.89692414 1074.35144055 C-689.89700157 1067.90120222 -685.94177159 1061.42474341 -682.00239289 1054.93737805 C-677.00963481 1046.71530846 -671.97066386 1038.52374152 -666.89692414 1030.35144055 C-662.89700157 1023.90120222 -658.94177159 1017.42474341 -655.00239289 1010.93737805 C-650.00963481 1002.71530846 -644.97066386 994.52374152 -639.89692414 986.35144055 C-635.89700157 979.90120222 -631.94177159 973.42474341 -628.00239289 966.93737805 C-623.00963481 958.71530846 -617.97066386 950.52374152 -612.89692414 942.35144055 C-608.89700113 935.90120151 -604.94184259 929.42470081 -601.00239289 922.93737805 C-596.05187669 914.78667267 -591.06170077 906.6621136 -586.03535187 898.55798352 C-575.97738706 882.33995028 -565.98790269 866.08048506 -556.08076203 849.76989758 C-551.72478478 842.60563265 -547.31863749 835.47359085 -542.89619172 828.35021985 C-538.89647521 821.90041204 -534.94152522 815.4243377 -531.00239289 808.93737805 C-526.00963481 800.71530846 -520.97066386 792.52374152 -515.89692414 784.35144055 C-511.89700157 777.90120222 -507.94177159 771.42474341 -504.00239289 764.93737805 C-499.00963481 756.71530846 -493.97066386 748.52374152 -488.89692414 740.35144055 C-484.89700157 733.90120222 -480.94177159 727.42474341 -477.00239289 720.93737805 C-472.00963481 712.71530846 -466.97066386 704.52374152 -461.89692414 696.35144055 C-457.89700157 689.90120222 -453.94177159 683.42474341 -450.00239289 676.93737805 C-445.00963481 668.71530846 -439.97066386 660.52374152 -434.89692414 652.35144055 C-430.89700157 645.90120222 -426.94177159 639.42474341 -423.00239289 632.93737805 C-418.00963481 624.71530846 -412.97066386 616.52374152 -407.89692414 608.35144055 C-403.89700157 601.90120222 -399.94177159 595.42474341 -396.00239289 588.93737805 C-391.00963481 580.71530846 -385.97066386 572.52374152 -380.89692414 564.35144055 C-376.89700157 557.90120222 -372.94177159 551.42474341 -369.00239289 544.93737805 C-364.00963481 536.71530846 -358.97066386 528.52374152 -353.89692414 520.35144055 C-349.89700157 513.90120222 -345.94177159 507.42474341 -342.00239289 500.93737805 C-337.00963481 492.71530846 -331.97066386 484.52374152 -326.89692414 476.35144055 C-322.89700157 469.90120222 -318.94177159 463.42474341 -315.00239289 456.93737805 C-310.00963481 448.71530846 -304.97066386 440.52374152 -299.89692414 432.35144055 C-295.89700157 425.90120222 -291.94177159 419.42474341 -288.00239289 412.93737805 C-283.00963481 404.71530846 -277.97066386 396.52374152 -272.89692414 388.35144055 C-268.89700157 381.90120222 -264.94177159 375.42474341 -261.00239289 368.93737805 C-256.00963481 360.71530846 -250.97066386 352.52374152 -245.89692414 344.35144055 C-241.89700157 337.90120222 -237.94177159 331.42474341 -234.00239289 324.93737805 C-229.00963481 316.71530846 -223.97066386 308.52374152 -218.89692414 300.35144055 C-214.89700157 293.90120222 -210.94177159 287.42474341 -207.00239289 280.93737805 C-202.00963481 272.71530846 -196.97066386 264.52374152 -191.89692414 256.35144055 C-187.89700157 249.90120222 -183.94177159 243.42474341 -180.00239289 236.93737805 C-175.00963481 228.71530846 -169.97066386 220.52374152 -164.89692414 212.35144055 C-160.89700157 205.90120222 -156.94177159 199.42474341 -153.00239289 192.93737805 C-148.00963481 184.71530846 -142.97066386 176.52374152 -137.89692414 168.35144055 C-133.89700157 161.90120222 -129.94177159 155.42474341 -126.00239289 148.93737805 C-121.00963481 140.71530846 -115.97066386 132.52374152 -110.89692414 124.35144055 C-106.89700113 117.90120151 -102.94184259 111.42470081 -99.00239289 104.93737805 C-94.05187669 96.78667267 -89.06170077 88.6621136 -84.03535187 80.55798352 C-74.05381231 64.46318271 -64.12072232 48.33818359 -54.30927765 32.13903821 C-53.26291362 30.41453988 -52.17785531 28.71306492 -51.05998242 27.03403771 C-49.31870633 24.23676818 -48.25410097 21.42804119 -47.15912068 18.32510102 C-38.44038711 -3.25201697 -19.97885293 -0.45684744 0 0 Z " fill="#FFFFFF" transform="translate(895.0023928880692,6.5626219511032104)"/>
<path d="M0 0 C4.99847986 0.07362902 9.99660034 0.04855618 14.99547017 0.03566134 C23.64879313 0.02676009 32.299932 0.07995248 40.9527055 0.1757046 C53.46266177 0.31405019 65.97156528 0.3581569 78.48220358 0.37950046 C98.78072687 0.41667916 119.07808676 0.52973399 139.37597859 0.69064486 C159.08978668 0.84676262 178.80327844 0.96705834 198.51758015 1.03927767 C199.73338439 1.04374397 200.94918863 1.04821027 202.20183542 1.05281191 C208.30135752 1.07499805 214.40088186 1.09648097 220.5004077 1.11761427 C271.07765518 1.29376092 321.65363994 1.59310575 372.22973835 1.97311556 C371.45107883 3.55447373 370.66959949 5.13444358 369.88696492 6.71383822 C369.4520876 7.59383486 369.01721028 8.47383151 368.56915486 9.38049471 C366.60070158 13.19070088 364.31678136 16.75646653 361.97973835 20.34811556 C356.79191721 28.44042363 351.76495524 36.6227761 346.79223835 44.84811556 C341.74846598 53.18543821 336.68518329 61.50889967 331.54223835 69.78561556 C327.06511242 76.99106626 322.63265305 84.22207489 318.22973835 91.47311556 C313.23699856 99.69519609 308.1980092 107.8867523 303.1242696 116.05905306 C299.12434704 122.50929139 295.16911705 128.9857502 291.22973835 135.47311556 C286.23698028 143.69518515 281.19800933 151.8867521 276.1242696 160.05905306 C272.12434704 166.50929139 268.16911705 172.9857502 264.22973835 179.47311556 C259.76366451 186.82784202 255.26821811 194.162845 250.72973835 201.47311556 C246.2557539 208.68041114 241.82111493 215.9102705 237.41723835 223.16061556 C229.06759145 236.90550851 220.62681593 250.59393372 212.18872273 264.284639 C204.52756241 276.7165794 196.88836739 289.16081066 189.30737507 301.64181674 C184.95162627 308.80566506 180.54573263 315.93730597 176.12353718 323.06027377 C172.12382067 329.51008157 168.16887069 335.98615592 164.22973835 342.47311556 C159.23698028 350.69518515 154.19800933 358.8867521 149.1242696 367.05905306 C145.12434704 373.50929139 141.16911705 379.9857502 137.22973835 386.47311556 C132.23698028 394.69518515 127.19800933 402.8867521 122.1242696 411.05905306 C118.12434704 417.50929139 114.16911705 423.9857502 110.22973835 430.47311556 C105.23698028 438.69518515 100.19800933 446.8867521 95.1242696 455.05905306 C91.12434704 461.50929139 87.16911705 467.9857502 83.22973835 474.47311556 C78.23698028 482.69518515 73.19800933 490.8867521 68.1242696 499.05905306 C64.12434704 505.50929139 60.16911705 511.9857502 56.22973835 518.47311556 C51.23698028 526.69518515 46.19800933 534.8867521 41.1242696 543.05905306 C37.12434704 549.50929139 33.16911705 555.9857502 29.22973835 562.47311556 C24.23698028 570.69518515 19.19800933 578.8867521 14.1242696 587.05905306 C10.12434704 593.50929139 6.16911705 599.9857502 2.22973835 606.47311556 C-2.76301972 614.69518515 -7.80199067 622.8867521 -12.8757304 631.05905306 C-16.87565296 637.50929139 -20.83088295 643.9857502 -24.77026165 650.47311556 C-29.76301972 658.69518515 -34.80199067 666.8867521 -39.8757304 675.05905306 C-43.87565296 681.50929139 -47.83088295 687.9857502 -51.77026165 694.47311556 C-56.76301972 702.69518515 -61.80199067 710.8867521 -66.8757304 719.05905306 C-70.87565296 725.50929139 -74.83088295 731.9857502 -78.77026165 738.47311556 C-83.76301972 746.69518515 -88.80199067 754.8867521 -93.8757304 763.05905306 C-97.87565296 769.50929139 -101.83088295 775.9857502 -105.77026165 782.47311556 C-110.76301972 790.69518515 -115.80199067 798.8867521 -120.8757304 807.05905306 C-124.87565296 813.50929139 -128.83088295 819.9857502 -132.77026165 826.47311556 C-137.23633549 833.82784202 -141.73178189 841.162845 -146.27026165 848.47311556 C-150.7442461 855.68041114 -155.17888507 862.9102705 -159.58276165 870.16061556 C-167.93240855 883.90550851 -176.37318407 897.59393372 -184.81127727 911.284639 C-192.47243759 923.7165794 -200.11163261 936.16081066 -207.69262493 948.64181674 C-212.04837373 955.80566506 -216.45426737 962.93730597 -220.87646282 970.06027377 C-224.87617933 976.51008157 -228.83112931 982.98615592 -232.77026165 989.47311556 C-237.76301972 997.69518515 -242.80199067 1005.8867521 -247.8757304 1014.05905306 C-251.87565296 1020.50929139 -255.83088295 1026.9857502 -259.77026165 1033.47311556 C-264.76301972 1041.69518515 -269.80199067 1049.8867521 -274.8757304 1058.05905306 C-278.87565296 1064.50929139 -282.83088295 1070.9857502 -286.77026165 1077.47311556 C-291.76301972 1085.69518515 -296.80199067 1093.8867521 -301.8757304 1102.05905306 C-305.87565296 1108.50929139 -309.83088295 1114.9857502 -313.77026165 1121.47311556 C-318.76301972 1129.69518515 -323.80199067 1137.8867521 -328.8757304 1146.05905306 C-332.87565296 1152.50929139 -336.83088295 1158.9857502 -340.77026165 1165.47311556 C-345.76301972 1173.69518515 -350.80199067 1181.8867521 -355.8757304 1190.05905306 C-359.87565296 1196.50929139 -363.83088295 1202.9857502 -367.77026165 1209.47311556 C-372.76301972 1217.69518515 -377.80199067 1225.8867521 -382.8757304 1234.05905306 C-386.87565296 1240.50929139 -390.83088295 1246.9857502 -394.77026165 1253.47311556 C-399.76301972 1261.69518515 -404.80199067 1269.8867521 -409.8757304 1278.05905306 C-413.87565296 1284.50929139 -417.83088295 1290.9857502 -421.77026165 1297.47311556 C-426.76301972 1305.69518515 -431.80199067 1313.8867521 -436.8757304 1322.05905306 C-440.87565296 1328.50929139 -444.83088295 1334.9857502 -448.77026165 1341.47311556 C-453.75688535 1349.68508307 -458.78713324 1357.86819214 -463.85815227 1366.02829134 C-466.77064417 1370.72152845 -469.65923035 1375.42798906 -472.52026165 1380.15280306 C-473.14610149 1381.18598666 -473.77194133 1382.21917025 -474.41674602 1383.28366244 C-475.61844106 1385.27044802 -476.81780596 1387.25864559 -478.01440227 1389.24850619 C-478.56289836 1390.15536166 -479.11139446 1391.06221713 -479.67651165 1391.99655306 C-480.1541093 1392.7898099 -480.63170696 1393.58306674 -481.12377727 1394.40036166 C-481.66711711 1395.24937045 -482.21045696 1396.09837924 -482.77026165 1396.97311556 C-483.56089897 1398.75916752 -483.56089897 1398.75916752 -484.36750877 1400.58130133 C-486.39523047 1403.35661706 -487.49260321 1403.91613036 -490.90753412 1404.61699343 C-495.23973147 1404.86169528 -499.52421302 1404.87275403 -503.86079204 1404.81489718 C-505.54803392 1404.81794918 -507.23527258 1404.82407729 -508.92249352 1404.83302134 C-513.56346262 1404.84869804 -518.20330418 1404.82064266 -522.84412956 1404.78557491 C-527.84681502 1404.75538851 -532.8494352 1404.76557223 -537.85218608 1404.77089083 C-546.52122721 1404.77456405 -555.18989998 1404.75257333 -563.85884845 1404.71322596 C-576.39267827 1404.65637332 -588.92632969 1404.63810962 -601.46027448 1404.62931002 C-621.79490572 1404.61398382 -642.12934057 1404.56738353 -662.46386516 1404.50119174 C-682.21873797 1404.43695359 -701.97355746 1404.38739727 -721.7285136 1404.35763705 C-723.55458447 1404.35487845 -723.55458447 1404.35487845 -725.41754565 1404.35206413 C-731.52469322 1404.34292896 -737.63184116 1404.33408298 -743.73898935 1404.3253808 C-794.41621586 1404.25279568 -845.09322918 1404.12948779 -895.77026165 1403.97311556 C-895.13952023 1402.69925783 -894.50734412 1401.42611042 -893.87457073 1400.15326083 C-893.5226831 1399.44420029 -893.17079547 1398.73513976 -892.80824459 1398.00459254 C-891.47464205 1395.39454689 -889.98789673 1392.90811169 -888.44213665 1390.41842806 C-887.81549114 1389.40498324 -887.18884563 1388.39153841 -886.54321086 1387.34738314 C-885.87563762 1386.27512484 -885.20806438 1385.20286654 -884.52026165 1384.09811556 C-883.81042105 1382.95210315 -883.10095592 1381.80585809 -882.39184368 1380.65939486 C-880.92018162 1378.2807869 -879.44692468 1375.90317887 -877.97241008 1373.52633822 C-874.51701559 1367.95412035 -871.08131191 1362.36977504 -867.64526165 1356.78561556 C-866.98324749 1355.71045687 -866.32123333 1354.63529818 -865.63915813 1353.52755892 C-860.68116741 1345.46983557 -855.7594182 1337.39052058 -850.84789836 1329.30441439 C-846.49214956 1322.14056607 -842.08625592 1315.00892516 -837.66406047 1307.88595736 C-833.66434396 1301.43614955 -829.70939398 1294.96007521 -825.77026165 1288.47311556 C-820.77750357 1280.25104598 -815.73853262 1272.05947903 -810.6647929 1263.88717806 C-806.66487033 1257.43693974 -802.70964035 1250.96048093 -798.77026165 1244.47311556 C-793.77750357 1236.25104598 -788.73853262 1228.05947903 -783.6647929 1219.88717806 C-779.66487033 1213.43693974 -775.70964035 1206.96048093 -771.77026165 1200.47311556 C-766.77750357 1192.25104598 -761.73853262 1184.05947903 -756.6647929 1175.88717806 C-752.66487033 1169.43693974 -748.70964035 1162.96048093 -744.77026165 1156.47311556 C-739.77750357 1148.25104598 -734.73853262 1140.05947903 -729.6647929 1131.88717806 C-725.66487033 1125.43693974 -721.70964035 1118.96048093 -717.77026165 1112.47311556 C-712.77750357 1104.25104598 -707.73853262 1096.05947903 -702.6647929 1087.88717806 C-698.66487033 1081.43693974 -694.70964035 1074.96048093 -690.77026165 1068.47311556 C-685.77750357 1060.25104598 -680.73853262 1052.05947903 -675.6647929 1043.88717806 C-671.66487033 1037.43693974 -667.70964035 1030.96048093 -663.77026165 1024.47311556 C-658.77750357 1016.25104598 -653.73853262 1008.05947903 -648.6647929 999.88717806 C-644.66487033 993.43693974 -640.70964035 986.96048093 -636.77026165 980.47311556 C-631.77750357 972.25104598 -626.73853262 964.05947903 -621.6647929 955.88717806 C-617.66487033 949.43693974 -613.70964035 942.96048093 -609.77026165 936.47311556 C-604.77750357 928.25104598 -599.73853262 920.05947903 -594.6647929 911.88717806 C-590.66487033 905.43693974 -586.70964035 898.96048093 -582.77026165 892.47311556 C-577.77750357 884.25104598 -572.73853262 876.05947903 -567.6647929 867.88717806 C-563.66487033 861.43693974 -559.70964035 854.96048093 -555.77026165 848.47311556 C-550.77750357 840.25104598 -545.73853262 832.05947903 -540.6647929 823.88717806 C-536.66487033 817.43693974 -532.70964035 810.96048093 -528.77026165 804.47311556 C-523.77750357 796.25104598 -518.73853262 788.05947903 -513.6647929 779.88717806 C-509.66487033 773.43693974 -505.70964035 766.96048093 -501.77026165 760.47311556 C-496.77750357 752.25104598 -491.73853262 744.05947903 -486.6647929 735.88717806 C-482.66487033 729.43693974 -478.70964035 722.96048093 -474.77026165 716.47311556 C-469.77750357 708.25104598 -464.73853262 700.05947903 -459.6647929 691.88717806 C-455.66486988 685.43693902 -451.70971135 678.96043832 -447.77026165 672.47311556 C-442.81974544 664.32241018 -437.82956953 656.19785112 -432.80322063 648.09372103 C-422.74525581 631.8756878 -412.75577145 615.61622258 -402.84863079 599.30563509 C-398.49265354 592.14137016 -394.08650625 585.00932837 -389.66406047 577.88595736 C-385.66434396 571.43614955 -381.70939398 564.96007521 -377.77026165 558.47311556 C-372.77750357 550.25104598 -367.73853262 542.05947903 -362.6647929 533.88717806 C-358.66487033 527.43693974 -354.70964035 520.96048093 -350.77026165 514.47311556 C-345.77750357 506.25104598 -340.73853262 498.05947903 -335.6647929 489.88717806 C-331.66487033 483.43693974 -327.70964035 476.96048093 -323.77026165 470.47311556 C-318.77750357 462.25104598 -313.73853262 454.05947903 -308.6647929 445.88717806 C-304.66487033 439.43693974 -300.70964035 432.96048093 -296.77026165 426.47311556 C-291.77750357 418.25104598 -286.73853262 410.05947903 -281.6647929 401.88717806 C-277.66487033 395.43693974 -273.70964035 388.96048093 -269.77026165 382.47311556 C-264.77750357 374.25104598 -259.73853262 366.05947903 -254.6647929 357.88717806 C-250.66487033 351.43693974 -246.70964035 344.96048093 -242.77026165 338.47311556 C-237.77750357 330.25104598 -232.73853262 322.05947903 -227.6647929 313.88717806 C-223.66487033 307.43693974 -219.70964035 300.96048093 -215.77026165 294.47311556 C-210.77750357 286.25104598 -205.73853262 278.05947903 -200.6647929 269.88717806 C-196.66487033 263.43693974 -192.70964035 256.96048093 -188.77026165 250.47311556 C-183.77750357 242.25104598 -178.73853262 234.05947903 -173.6647929 225.88717806 C-169.66487033 219.43693974 -165.70964035 212.96048093 -161.77026165 206.47311556 C-156.77750357 198.25104598 -151.73853262 190.05947903 -146.6647929 181.88717806 C-142.66487033 175.43693974 -138.70964035 168.96048093 -134.77026165 162.47311556 C-129.77750357 154.25104598 -124.73853262 146.05947903 -119.6647929 137.88717806 C-115.66487033 131.43693974 -111.70964035 124.96048093 -107.77026165 118.47311556 C-102.77750357 110.25104598 -97.73853262 102.05947903 -92.6647929 93.88717806 C-88.66487033 87.43693974 -84.70964035 80.96048093 -80.77026165 74.47311556 C-75.77920189 66.25384276 -70.74363734 58.06398989 -65.66918743 49.89596713 C-62.83373181 45.32586971 -60.01819502 40.74482755 -57.23119915 36.14499056 C-56.33304485 34.66289095 -56.33304485 34.66289095 -55.41674602 33.15084994 C-54.29333056 31.29417984 -53.17198394 29.43625508 -52.05346477 27.57663119 C-50.98074955 25.80358058 -49.86769326 24.05434577 -48.71683013 22.33099425 C-47.15840918 19.64267964 -46.28918511 17.62980805 -45.36528099 14.74085486 C-38.12462985 -4.26699339 -16.90688961 -0.31228363 0 0 Z " fill="#0468A9" transform="translate(1427.770261645317,7.026884436607361)"/>
</svg>
