<?xml version="1.0" encoding="UTF-8"?>
<svg version="1.1" xmlns="http://www.w3.org/2000/svg" width="800" height="800">
<path d="M0 0 C1.01673766 0.00092179 2.03347532 0.00184359 3.08102322 0.00279331 C4.24355114 0.00141865 5.40607906 0.00004398 6.60383511 -0.00137234 C7.89064175 0.00222294 9.17744839 0.00581821 10.50324917 0.00952244 C11.86298527 0.00980431 13.22272153 0.00964658 14.58245754 0.00907993 C18.28477281 0.00879196 21.98705595 0.01468871 25.68936372 0.02165389 C29.55444283 0.0278874 33.41952261 0.02849123 37.28460598 0.0296793 C44.60860185 0.03279262 51.93258287 0.04100602 59.25657219 0.05102879 C67.5925895 0.06218989 75.92860751 0.06770037 84.26463044 0.07272422 C101.4170139 0.08318864 118.5693829 0.1007881 135.72175503 0.12304783 C135.03408141 3.93417659 134.0881681 6.55716137 132.02253628 9.84961033 C131.48064663 10.72262791 130.93875698 11.59564548 130.38044643 12.49511814 C129.55939419 13.79594334 129.55939419 13.79594334 128.72175503 15.12304783 C127.77711407 16.65130409 126.83308628 18.17993957 125.88972378 19.70898533 C124.89656456 21.30554505 123.9030594 22.90188961 122.90925503 24.49804783 C117.56066792 33.10983243 112.28560335 41.76432968 107.03425503 50.43554783 C102.13390681 58.5262529 97.21195528 66.60051581 92.17707729 74.60839939 C86.13683182 84.2205023 80.26470182 93.93680203 74.37019253 103.63867283 C68.15993104 113.85748628 61.92045264 124.05609184 55.61238003 134.2148447 C51.65271984 140.59907942 47.74253447 147.01217229 43.84675503 153.43554783 C38.30348895 162.57312385 32.65971284 171.64415344 26.98054409 180.69775486 C23.27868687 186.60734621 19.63395436 192.54387858 16.06989956 198.53735447 C9.89969338 208.89150699 3.50221963 219.11339977 -2.91105747 229.31836033 C-7.98174638 237.38733459 -12.93237233 245.51864481 -17.81755161 253.70141697 C-21.30332226 259.5292858 -24.86924399 265.29973014 -28.48918247 271.04492283 C-31.82713344 276.36013137 -35.06107073 281.73403853 -38.27824497 287.12304783 C-42.30146474 293.86058283 -46.38840992 300.55024044 -50.5638895 307.19433689 C-57.0763554 317.56344826 -63.43603436 328.0257764 -69.7111063 338.54004002 C-74.04096346 345.79323575 -78.42762704 352.99810253 -82.96574497 360.12304783 C-88.82896663 369.32851287 -94.49337023 378.65132058 -100.14030552 387.99023533 C-104.21356863 394.72606168 -108.31225943 401.44450262 -112.44328403 408.14502048 C-114.89930311 412.13098651 -117.33958658 416.1264472 -119.77824497 420.12304783 C-121.18572176 422.42674157 -122.59352653 424.73023462 -124.0013895 427.03369236 C-125.11358523 428.85361034 -126.22525749 430.67384821 -127.33683872 432.49414158 C-130.25640245 437.25891813 -133.19869835 442.0060663 -136.19230747 446.72461033 C-136.71188023 447.54389011 -137.23145298 448.3631699 -137.76677036 449.20727634 C-138.77684167 450.79766472 -139.78887809 452.38680772 -140.80339146 453.97436619 C-141.28106968 454.72597019 -141.7587479 455.4775742 -142.25090122 456.25195408 C-142.72176875 456.97438675 -143.19263628 457.69681942 -143.67777252 458.44114399 C-145.35309235 461.12439002 -145.35309235 461.12439002 -146.62538338 464.17584705 C-150.51976451 472.45661469 -150.51976451 472.45661469 -155.14874172 474.21091557 C-158.79110055 474.60459404 -162.26259816 474.60840061 -165.92448521 474.48535252 C-167.3048075 474.48196376 -168.68515139 474.48387526 -170.06546116 474.49066257 C-173.7982465 474.4940954 -177.52637081 474.42374954 -181.25807548 474.33977509 C-185.16291681 474.26456738 -189.06787477 474.25769599 -192.97332859 474.24347019 C-200.36189326 474.20622594 -207.74831785 474.10783476 -215.13594157 473.98727632 C-223.54918346 473.85297244 -231.96252964 473.78712638 -240.37657726 473.7269311 C-257.6783695 473.60162277 -274.97808072 473.39066645 -292.27824497 473.12304783 C-291.34380151 471.39718264 -290.40777857 469.67217259 -289.47111607 467.94751072 C-288.95004276 466.98680164 -288.42896946 466.02609257 -287.89210606 465.0362711 C-285.35925383 460.46415264 -282.63898402 456.01326463 -279.90324497 451.56054783 C-279.00412388 450.09004978 -279.00412388 450.09004978 -278.08683872 448.5898447 C-272.82731618 439.99567643 -267.54149743 431.41756469 -262.25480747 422.84008884 C-257.77881672 415.57473612 -253.33237367 408.29204704 -248.90324497 400.99804783 C-242.65532127 390.71582538 -236.38195324 380.44877613 -229.84074497 370.34961033 C-229.44153843 369.73287449 -229.04233189 369.11613865 -228.63102818 368.48071384 C-227.55221963 366.81876555 -226.46819172 365.16020842 -225.38371372 363.50195408 C-223.80133167 360.96250979 -222.32468186 358.43405347 -220.88761997 355.81445408 C-218.20605815 350.93389875 -215.29442779 346.21749462 -212.34074497 341.49804783 C-207.67439469 334.00186798 -203.04761764 326.4836592 -198.46574497 318.93554783 C-189.01575646 303.37969928 -179.51836278 287.85105148 -169.84074497 272.43554783 C-166.47698952 267.07576293 -163.18754963 261.67688497 -159.94352818 256.24389744 C-148.60999546 237.27334483 -137.01799494 218.45479239 -125.274827 199.73535252 C-121.29074778 193.38392187 -117.37643197 186.99734614 -113.53337193 180.55957127 C-109.84137547 174.37709148 -106.06355427 168.24877698 -102.27824497 162.12304783 C-100.94447478 159.95665006 -99.61114338 157.78998208 -98.27824497 155.62304783 C-96.31426678 152.43110658 -94.34994006 149.23938604 -92.38371372 146.04882908 C-85.78998573 135.34577162 -79.23971137 124.61620665 -72.69230747 113.88476658 C-64.24147833 100.03826048 -55.73276446 86.22745036 -47.22636509 72.41504002 C-44.80582546 68.48458087 -42.38565921 64.55389205 -39.96574497 60.62304783 C-38.9668021 59.00064182 -38.9668021 59.00064182 -37.94767857 57.34545994 C-34.02259104 50.96755822 -30.11293881 44.58052277 -26.21574497 38.18554783 C-22.92924996 32.79391148 -19.59051514 27.44311702 -16.17668247 22.13086033 C-13.02846887 17.14294989 -9.97673393 12.09565212 -6.9208231 7.0507822 C-6.23536411 5.92253025 -6.23536411 5.92253025 -5.53605747 4.77148533 C-5.12500767 4.09263279 -4.71395786 3.41378025 -4.290452 2.71435642 C-2.65510735 0.14340214 -2.65510735 0.14340214 0 0 Z " fill="#FCC903" transform="translate(660.278244972229,163.87695217132568)"/>
<path d="M0 0 C2.47848043 -0.03178272 4.95819231 -0.0028516 7.4356842 0.07402039 C8.80615487 0.0771268 10.17664382 0.07537445 11.54710388 0.06915283 C15.25273697 0.0660065 18.95442388 0.13048939 22.65914226 0.20746636 C26.53599363 0.27641059 30.41294391 0.28270597 34.29031372 0.29574585 C41.62559675 0.32988478 48.95906825 0.42007631 56.29355484 0.53059024 C64.64638496 0.6537057 72.99930339 0.71406223 81.35281551 0.76924002 C98.53000376 0.88410266 115.70543055 1.07747785 132.88124084 1.32279968 C130.77779804 7.85059241 130.77779804 7.85059241 128.56874084 10.63529968 C126.66878828 13.1391216 125.0829839 15.66458144 123.59608459 18.43217468 C120.82329877 23.48758405 117.81240381 28.37246136 114.75624084 33.26029968 C113.59567677 35.12593146 112.43552699 36.99182102 111.27577209 38.85795593 C110.70165588 39.78108582 110.12753967 40.7042157 109.536026 41.65531921 C107.15543707 45.4927808 104.79631498 49.3431166 102.44374084 53.19779968 C102.0044928 53.91725769 101.56524475 54.6367157 101.11268616 55.37797546 C98.58453822 59.52228689 96.06206969 63.67003175 93.54139709 67.81889343 C83.98261733 83.54875007 74.33233218 99.21921485 64.56874084 114.82279968 C58.53391717 124.47092807 52.57330358 134.15634766 46.73670959 143.92582703 C40.37416575 154.5727213 33.90604518 165.14138454 27.30360413 175.64115906 C22.85027518 182.73561955 18.51578262 189.89276063 14.2325592 197.09086609 C10.3481081 203.59789437 6.31155083 209.99939692 2.23988342 216.39042664 C-1.41764105 222.15421582 -4.90024887 228.00255454 -8.32798767 233.90507507 C-11.97955248 240.16042767 -15.84185069 246.27184974 -19.73033142 252.38188171 C-23.10976673 257.70024837 -26.39614652 263.06291335 -29.61509705 268.47953796 C-32.88483376 273.96778995 -36.24750372 279.39644398 -39.61875916 284.82279968 C-43.80657067 291.56559923 -47.95041819 298.33020874 -52.01939392 305.14530945 C-57.68553606 314.6314986 -63.53687846 324.00210263 -69.39878845 333.3679657 C-74.31178936 341.22176075 -79.19052084 349.09555668 -83.94688416 357.04545593 C-87.12750376 362.352456 -90.36363105 367.62374463 -93.61875916 372.88529968 C-94.16145447 373.7663739 -94.70414978 374.64744812 -95.26329041 375.55522156 C-97.84283519 379.72620387 -100.45837623 383.85452366 -103.21250916 387.91264343 C-105.66279548 391.5522406 -107.82145084 395.28592366 -109.91661072 399.13871765 C-111.83337974 402.6211335 -113.91102681 406.00036562 -115.99375916 409.38529968 C-116.45572693 410.13915955 -116.9176947 410.89301941 -117.3936615 411.66972351 C-122.11393156 419.35311102 -126.90980659 426.98920941 -131.69908142 434.62968445 C-135.1625443 440.16369097 -138.58999396 445.71422317 -141.93125916 451.32279968 C-142.57892746 452.34741806 -143.22659576 453.37203644 -143.89389038 454.42770386 C-145.48107456 457.04604252 -146.6127247 459.56115195 -147.6118927 462.45146179 C-149.53740173 467.32672005 -151.72414254 471.29993249 -156.11875916 474.32279968 C-165.35573004 477.14516778 -175.63408528 476.23588348 -185.20084238 475.94510269 C-189.06942899 475.84454626 -192.93824586 475.83564308 -196.80793762 475.81669617 C-204.12285393 475.76711448 -211.43390889 475.63604717 -218.74713027 475.47510433 C-227.07797368 475.29577781 -235.40900935 475.20817661 -243.74130464 475.12797737 C-260.86935045 474.96107805 -277.99364565 474.67996951 -295.11875916 474.32279968 C-294.43257619 471.38595941 -293.6010881 469.19353132 -292.00157166 466.62748718 C-291.34705017 465.56787781 -291.34705017 465.56787781 -290.67930603 464.48686218 C-290.20557556 463.73147156 -289.73184509 462.97608093 -289.24375916 462.19779968 C-288.23580762 460.57028161 -287.22799905 458.942675 -286.22032166 457.31498718 C-285.70372986 456.48450867 -285.18713806 455.65403015 -284.65489197 454.79838562 C-282.28904713 450.98566047 -279.95460799 447.15394568 -277.61875916 443.32279968 C-276.69963973 441.81880089 -275.78036851 440.31489486 -274.86094666 438.81108093 C-273.05199488 435.85115309 -271.24482328 432.89014957 -269.43907166 429.92826843 C-261.07406422 416.2129992 -252.64883608 402.53452928 -244.11021423 388.92655945 C-240.26898406 382.8040087 -236.4901582 376.65055268 -232.78477478 370.44487 C-224.37157173 356.36252926 -215.7953111 342.37802727 -207.14830017 328.4382782 C-200.80093746 318.20535812 -194.49672276 307.94595022 -188.18907166 297.68852234 C-186.10415526 294.29905802 -184.01791995 290.91040908 -181.93125916 287.52201843 C-174.74302108 275.84874621 -167.56642761 264.16867739 -160.42637634 252.46586609 C-158.09597425 248.64654765 -155.76379948 244.82831254 -153.43125916 241.01029968 C-152.96719666 240.25063904 -152.50313416 239.49097839 -152.02500916 238.70829773 C-149.46047918 234.51208555 -146.8879728 230.32097159 -144.30625916 226.13529968 C-140.65606617 220.2130478 -137.04384758 214.26804889 -133.43125916 208.32279968 C-128.26599173 199.82483357 -123.0578224 191.35486069 -117.81455994 182.90483093 C-113.38142572 175.7575052 -108.99111642 168.58469683 -104.61094666 161.40483093 C-101.79760188 156.79365353 -98.96799056 152.19264673 -96.13414001 147.59403992 C-94.20978414 144.47054575 -92.28710036 141.34602923 -90.36485291 138.22123718 C-87.66634222 133.83507284 -84.96442336 129.45103617 -82.25938416 125.06889343 C-75.53070273 114.16190411 -68.84115365 103.23572413 -62.27159119 92.23197937 C-58.93097907 86.64723116 -55.5140819 81.11632434 -52.04698181 75.60942078 C-48.34468941 69.71654427 -44.72931855 63.77222017 -41.11875916 57.82279968 C-36.70831403 50.55700673 -32.26542245 43.31524177 -27.74253845 36.11894226 C-24.15441913 30.40261552 -20.63588492 24.64479579 -17.13560486 18.87431335 C-16.29890341 17.49855698 -15.44896255 16.13074449 -14.58448887 14.77226734 C-13.05733606 12.31047663 -13.05733606 12.31047663 -11.79662228 9.52595806 C-8.79964889 3.73260094 -6.7215877 0.67054046 0 0 Z " fill="#0467A7" transform="translate(478.11875915527344,162.6772003173828)"/>
<path d="M0 0 C1.53340263 0.00691345 1.53340263 0.00691345 3.09778309 0.01396656 C4.27147449 0.00709324 5.4451659 0.00021992 6.65442371 -0.00686169 C8.58787395 0.02010288 8.58787395 0.02010288 10.5603838 0.04761219 C11.93026649 0.04902243 13.30015296 0.04823115 14.67003345 0.04539967 C18.39114162 0.0439631 22.11144646 0.07339043 25.83236766 0.10826945 C29.72008409 0.13949365 33.60781828 0.14246055 37.49564075 0.14839649 C44.85869838 0.16394663 52.22138548 0.20499057 59.58427984 0.25514394 C67.96624154 0.3110013 76.3482208 0.33851477 84.73032224 0.36362112 C101.9737766 0.41590569 119.21687014 0.50387032 136.460042 0.61523914 C135.54255724 4.8386546 133.53862239 8.19159659 131.335042 11.86523914 C130.89982227 12.59831287 130.46460255 13.3313866 130.01619434 14.08667469 C125.50653724 21.63206682 120.8238129 29.06964709 116.14680958 36.51196766 C111.02095858 44.67953244 106.03780937 52.92487429 101.09676075 61.20508289 C95.63059465 70.36486856 89.98033168 79.41120757 84.31111622 88.44629383 C77.88934693 98.69202057 71.59762534 109.01688561 65.33519459 119.36050892 C59.34434221 129.25304563 53.31430928 139.11904207 47.210042 148.94214344 C42.59041523 156.38335163 38.04143654 163.86658008 33.49641895 171.35352039 C29.61936282 177.73220213 25.69218046 184.07669544 21.72273731 190.39819813 C19.13923098 194.51599746 16.61173873 198.66172731 14.1241045 202.83789539 C7.96464685 213.11811696 1.65615811 223.30893681 -4.664958 233.49023914 C-10.6593809 243.14862991 -16.56531382 252.85956729 -22.45255566 262.58350086 C-26.5093534 269.28152876 -30.58960081 275.96405752 -34.69938183 282.62964344 C-36.60858426 285.7265577 -38.51218254 288.82687285 -40.414958 291.92773914 C-43.39649367 296.7727346 -46.39896149 301.60412856 -49.414958 306.42773914 C-50.0483308 307.44130482 -50.0483308 307.44130482 -50.69449902 308.47534657 C-52.76959953 311.79369646 -54.85009329 315.10842824 -56.94230175 318.41602039 C-62.36676519 327.01192939 -67.57595741 335.71961252 -72.72501659 344.48315907 C-76.28402631 350.5272042 -79.92454184 356.50734891 -83.66764355 362.43872547 C-87.29145762 368.18926226 -90.82610233 373.99202075 -94.352458 379.80273914 C-101.86857824 392.18006727 -109.44809167 404.51855585 -117.15323925 416.77930164 C-117.96973094 418.07872713 -118.78613893 419.37820521 -119.602458 420.67773914 C-120.19764233 421.62520008 -120.19764233 421.62520008 -120.80485058 422.59180164 C-124.10431569 427.86775473 -127.29389786 433.20627119 -130.477458 438.55273914 C-134.79250019 445.79805752 -139.24705455 452.93080738 -143.88737011 459.97241688 C-145.95143908 463.11249963 -147.93986808 466.26144365 -149.789958 469.53320789 C-151.539958 472.61523914 -151.539958 472.61523914 -152.539958 473.61523914 C-154.33689838 473.71163098 -156.13766693 473.73711339 -157.93719006 473.73549366 C-159.69360317 473.73755566 -159.69360317 473.73755566 -161.48549938 473.73965931 C-163.42973545 473.7342664 -163.42973545 473.7342664 -165.41324902 473.72876453 C-166.78283721 473.72848266 -168.15242556 473.72864039 -169.52201366 473.72920704 C-173.25118748 473.72949502 -176.98032941 473.72359823 -180.70949578 473.71663308 C-184.60260213 473.71039961 -188.49570913 473.70979575 -192.38881969 473.70860767 C-199.76593946 473.70549434 -207.14304449 473.69728092 -214.52015775 473.68725818 C-222.91663343 473.67609712 -231.31310979 473.67058661 -239.70959103 473.66556275 C-256.98638856 473.65509831 -274.26317172 473.63749882 -291.539958 473.61523914 C-290.34738553 470.57956128 -289.15257208 467.76997787 -287.430583 464.99805164 C-287.01324902 464.3211327 -286.59591503 463.64421375 -286.16593456 462.94678211 C-285.7118623 462.21862293 -285.25779003 461.49046375 -284.789958 460.74023914 C-283.7895613 459.12069245 -282.78958118 457.50088838 -281.789958 455.88086414 C-281.26015331 455.02428211 -280.73034863 454.16770008 -280.18448925 453.28516102 C-277.94661424 449.65193639 -275.73649937 446.00214555 -273.52506542 442.35278797 C-268.08185795 433.37268278 -262.56667413 424.44267913 -256.977458 415.55273914 C-251.58264392 406.96872174 -246.36368216 398.29873144 -241.24064159 389.55029774 C-237.33385429 382.90072756 -233.27293622 376.3659362 -229.12687206 369.86353016 C-224.5909964 362.73710288 -220.20120068 355.52611621 -215.82145214 348.30298328 C-211.92809928 341.88571538 -208.00002918 335.49153292 -204.039958 329.11523914 C-198.8328478 320.72962872 -193.69251754 312.30498273 -188.57047558 303.86719227 C-184.76982175 297.6139365 -180.92147772 291.3936874 -177.02237988 285.20142078 C-174.2294177 280.75433487 -171.52926462 276.25798914 -168.852458 271.74023914 C-166.33779376 267.49776779 -163.73366642 263.3711298 -160.852458 259.36523914 C-157.96892169 255.3453662 -155.63243357 251.20409891 -153.31730175 246.83789539 C-149.77283738 240.41111934 -145.83942453 234.20996435 -141.98673534 227.96484852 C-140.15104826 224.98363818 -138.32882705 221.99433561 -136.50699902 219.00464344 C-132.17471646 211.89661063 -127.80588004 204.81217633 -123.414958 197.74023914 C-117.32980879 187.93711022 -111.3380227 178.07841403 -105.36368847 168.2075243 C-101.79722392 162.31686962 -98.21346488 156.43984851 -94.539958 150.61523914 C-89.28138521 142.25161473 -84.0620974 133.87141086 -78.99698925 125.38892078 C-70.56250037 111.27103608 -61.8852685 97.30010113 -53.21915722 83.32373524 C-48.32140126 75.42380726 -43.42990503 67.52000242 -38.539958 59.61523914 C-38.14437695 58.97618641 -37.74879589 58.33713367 -37.34122753 57.67871571 C-33.13812261 50.88601106 -28.99740024 44.05883467 -24.89664745 37.20410633 C-21.16555754 30.97410992 -17.35756244 24.79254396 -13.539958 18.61523914 C-12.10143534 16.28253498 -10.66433428 13.94895766 -9.227458 11.61523914 C-8.27419628 10.06836414 -8.27419628 10.06836414 -7.30167675 8.49023914 C-5.52669254 5.70681328 -5.52669254 5.70681328 -4.2822094 2.97313118 C-2.539958 0.61523914 -2.539958 0.61523914 0 0 Z " fill="#FCFCFC" transform="translate(294.5399580001831,163.38476085662842)"/>
</svg>
